<svg width="1600" height="900" xmlns="http://www.w3.org/2000/svg">
  <defs>
    <linearGradient id="webDevGrad" x1="0%" y1="0%" x2="100%" y2="100%">
      <stop offset="0%" style="stop-color:#3b82f6;stop-opacity:1" />
      <stop offset="100%" style="stop-color:#06b6d4;stop-opacity:1" />
    </linearGradient>
  </defs>
  <rect width="1600" height="900" fill="#0f172a"/>
  <circle cx="800" cy="450" r="400" fill="url(#webDevGrad)" opacity="0.15"/>
  <rect x="300" y="200" width="350" height="500" rx="20" fill="#1e293b" stroke="#3b82f6" stroke-width="3"/>
  <rect x="320" y="220" width="310" height="60" rx="10" fill="#3b82f6" opacity="0.8"/>
  <rect x="320" y="300" width="290" height="40" rx="8" fill="#475569"/>
  <rect x="320" y="360" width="270" height="40" rx="8" fill="#475569"/>
  <rect x="320" y="420" width="280" height="40" rx="8" fill="#475569"/>
  <rect x="320" y="500" width="290" height="180" rx="10" fill="#0f172a" stroke="#3b82f6" stroke-width="2"/>
  <circle cx="465" cy="590" r="60" fill="#3b82f6" opacity="0.4"/>
  <rect x="950" y="200" width="350" height="500" rx="20" fill="#1e293b" stroke="#06b6d4" stroke-width="3"/>
  <rect x="970" y="220" width="310" height="60" rx="10" fill="#06b6d4" opacity="0.8"/>
  <rect x="970" y="300" width="290" height="40" rx="8" fill="#475569"/>
  <rect x="970" y="360" width="270" height="40" rx="8" fill="#475569"/>
  <rect x="970" y="420" width="280" height="40" rx="8" fill="#475569"/>
  <rect x="970" y="500" width="290" height="180" rx="10" fill="#0f172a" stroke="#06b6d4" stroke-width="2"/>
  <circle cx="1115" cy="590" r="60" fill="#06b6d4" opacity="0.4"/>
  <text x="800" y="800" font-family="Arial, sans-serif" font-size="56" font-weight="bold" fill="#e2e8f0" text-anchor="middle">Web Development</text>
  <text x="800" y="860" font-family="Arial, sans-serif" font-size="32" fill="#94a3b8" text-anchor="middle">HTML • CSS • JavaScript • React</text>
</svg>
